<svg preserveAspectRatio="none" overflow="visible" style="display: block;" width="233.915" height="481.812" viewBox="0 0 233.915 481.812" fill="none" xmlns="http://www.w3.org/2000/svg">
<path id="&#209;&#128;&#208;&#176;&#208;&#188;&#208;&#186;&#208;&#176;" fill-rule="evenodd" clip-rule="evenodd" d="M58.5298 13.9822C58.4951 14.402 58.4774 14.8266 58.4774 15.2553C58.4774 23.6806 65.3074 30.5106 73.7327 30.5106H160.18C168.605 30.5106 175.435 23.6806 175.435 15.2553C175.435 14.8266 175.417 14.402 175.382 13.9822H195.776C211.223 13.9822 223.745 26.5046 223.745 41.9509V443.674C223.745 459.12 211.223 471.642 195.776 471.642H38.1387C22.6923 471.642 10.1699 459.12 10.1699 443.674V41.9509C10.1699 26.5046 22.6923 13.9822 38.1387 13.9822H58.5298ZM63.6438 3.81226H38.1387L37.1543 3.82495C16.5459 4.34688 0 21.2167 0 41.9509V443.674C0 464.408 16.5459 481.278 37.1543 481.8L38.1387 481.812H195.776C216.511 481.812 233.38 465.266 233.902 444.658L233.915 443.674V41.9509C233.915 20.8877 216.84 3.81226 195.776 3.81226H170.268C167.579 1.43961 164.048 0 160.18 0H73.7327C69.8646 0 66.3328 1.43961 63.6438 3.81226Z" fill="#262626"/>
</svg>
